<svg version="1.1" xmlns="http://www.w3.org/2000/svg" viewBox="0 0 811.0755789620541 1178.8020087445689" width="811.0755789620541" height="1178.8020087445689" filter="invert(93%) hue-rotate(180deg)">
  <!-- svg-source:excalidraw -->
  
  <defs>
    <style class="style-fonts">
      @font-face {
        font-family: "Virgil";
        src: url("https://excalidraw.com/Virgil.woff2");
      }
      @font-face {
        font-family: "Cascadia";
        src: url("https://excalidraw.com/Cascadia.woff2");
      }
      @font-face {
        font-family: "Assistant";
        src: url("https://excalidraw.com/Assistant-Regular.woff2");
      }
    </style>
    
  </defs>
  <g stroke-linecap="round" transform="translate(10 976.9881223745917) rotate(0 395.53778948102706 95.90694318498856)"><path d="M0 0 C218.08 -2.77, 436.86 -2.77, 791.08 0 M791.08 0 C789.26 53.89, 789.62 108.67, 791.08 191.81 M791.08 191.81 C598.35 190.04, 405.18 191.04, 0 191.81 M0 191.81 C3.1 137.76, 2.7 87.92, 0 0" stroke="#1e1e1e" stroke-width="2.5" fill="none" stroke-dasharray="1.5 8"></path></g><g stroke-linecap="round" transform="translate(10.389402699395987 267.2857142857136) rotate(0 393.8449340635651 276.8697876536936)"><path d="M0 0 C293.41 1.5, 585.18 1.51, 787.69 0 M787.69 0 C786.89 138.73, 786.55 278.56, 787.69 553.74 M787.69 553.74 C587.51 553.05, 386.3 551.74, 0 553.74 M0 553.74 C-1.25 381.27, -1.6 207.81, 0 0" stroke="#1e1e1e" stroke-width="2.5" fill="none" stroke-dasharray="1.5 8"></path></g><g stroke-linecap="round" transform="translate(14.253396080413722 10) rotate(0 390.1002894810266 79.85714285714283)"><path d="M0 0 C184.15 1.48, 368.15 1.73, 780.2 0 M780.2 0 C778.87 44.26, 779.08 86.04, 780.2 159.71 M780.2 159.71 C579.4 161.63, 379.09 162.9, 0 159.71 M0 159.71 C-0.66 122.83, -0.57 84.97, 0 0" stroke="#1e1e1e" stroke-width="2.5" fill="none" stroke-dasharray="1.5 8"></path></g><g stroke-linecap="round" transform="translate(23.85575765958697 410.7422828284952) rotate(0 84.60907177859605 22.748544436934424)"><path d="M0 0 C47.43 1.37, 92.86 1.48, 169.22 0 M0 0 C41.24 -1.34, 81.25 -1.19, 169.22 0 M169.22 0 C170.89 14.53, 170.54 32.38, 169.22 45.5 M169.22 0 C170.25 16.22, 170.11 30.65, 169.22 45.5 M169.22 45.5 C113.92 46.74, 57 43.82, 0 45.5 M169.22 45.5 C128.72 44.43, 89.63 44.35, 0 45.5 M0 45.5 C-0.09 33.19, 0.29 17.33, 0 0 M0 45.5 C-0.45 30.91, 0.14 16.86, 0 0" stroke="#1e1e1e" stroke-width="2" fill="none"></path></g><g transform="translate(44.906495087597136 420.9908272654297) rotate(0 63.55833435058594 12.5)"><text x="63.55833435058594" y="17.52" font-family="Virgil, Segoe UI Emoji" font-size="20px" fill="#1e1e1e" text-anchor="middle" style="white-space: pre;" direction="ltr" dominant-baseline="alphabetic">Hotel Service</text></g><g mask="url(#mask-HwcjdD9oDA3sDa9hfHFs_)" stroke-linecap="round"><g transform="translate(333.69688432224825 118.50604981915689) rotate(0 -130.44191896302203 140.34953158027923)"><path d="M-0.05 0.02 C-34.03 17.25, -160.51 56.92, -204.02 103.78 C-247.52 150.65, -251.58 251.63, -261.08 281.23 M-1.54 -1.01 C-35.6 16.33, -161.21 58.26, -204.61 104.95 C-248.01 151.65, -252.57 250.12, -261.95 279.17" stroke="#1e1e1e" stroke-width="2" fill="none"></path></g><g transform="translate(333.69688432224825 118.50604981915689) rotate(0 -130.44191896302203 140.34953158027923)"><path d="M-265.73 254.46 C-264.52 262.69, -264.64 268.34, -261.95 279.17 M-265.73 254.46 C-264.12 262.79, -263.94 271.86, -261.95 279.17" stroke="#1e1e1e" stroke-width="2" fill="none"></path></g><g transform="translate(333.69688432224825 118.50604981915689) rotate(0 -130.44191896302203 140.34953158027923)"><path d="M-248.96 257.81 C-252.59 265.07, -257.52 269.76, -261.95 279.17 M-248.96 257.81 C-253.13 265.09, -258.72 273, -261.95 279.17" stroke="#1e1e1e" stroke-width="2" fill="none"></path></g></g><mask id="mask-HwcjdD9oDA3sDa9hfHFs_"><rect x="0" y="0" fill="#fff" width="694.5807222482923" height="499.20511297971535"></rect><rect x="68.31518689771883" y="210.48789542061934" fill="#000" width="121.38333129882812" height="25" opacity="1"></rect></mask><g transform="translate(68.31518689771883 210.48789542061934) rotate(0 134.379376722914 48.1294973808192)"><text x="60.69166564941406" y="17.52" font-family="Virgil, Segoe UI Emoji" font-size="20px" fill="#1e1e1e" text-anchor="middle" style="white-space: pre;" direction="ltr" dominant-baseline="alphabetic">Cancel Hotel</text></g><g mask="url(#mask-6nMnVPku8n1HzqszjNpPu)" stroke-linecap="round"><g transform="translate(375.7390283582017 121.76628218056732) rotate(0 -127.60488733207961 138.0051296852887)"><path d="M0.19 0.47 C-13.08 17.88, -36.03 58.51, -78.45 104.41 C-120.88 150.32, -224.98 247.33, -254.37 275.89 M-1.18 -0.33 C-14.73 17.2, -37.3 59.13, -79.55 105.38 C-121.81 151.62, -225.57 248.58, -254.69 277.14" stroke="#1e1e1e" stroke-width="2" fill="none"></path></g><g transform="translate(375.7390283582017 121.76628218056732) rotate(0 -127.60488733207961 138.0051296852887)"><path d="M-243.66 254.71 C-247.25 263.12, -254.23 273.9, -254.69 277.14 M-243.66 254.71 C-246.49 260.81, -249.32 267.82, -254.69 277.14" stroke="#1e1e1e" stroke-width="2" fill="none"></path></g><g transform="translate(375.7390283582017 121.76628218056732) rotate(0 -127.60488733207961 138.0051296852887)"><path d="M-231.82 267.05 C-240.1 270.59, -251.76 276.48, -254.69 277.14 M-231.82 267.05 C-238.13 269.55, -244.39 272.98, -254.69 277.14" stroke="#1e1e1e" stroke-width="2" fill="none"></path></g></g><mask id="mask-6nMnVPku8n1HzqszjNpPu"><rect x="0" y="0" fill="#fff" width="730.948803022361" height="497.7765415511447"></rect><rect x="244.56161470620782" y="214.77360970633367" fill="#000" width="106.03333282470703" height="25" opacity="1"></rect></mask><g transform="translate(244.56161470620782 214.77360970633362) rotate(0 3.9255411839324097 45.39916082245924)"><text x="53.016666412353516" y="17.52" font-family="Virgil, Segoe UI Emoji" font-size="20px" fill="#1e1e1e" text-anchor="middle" style="white-space: pre;" direction="ltr" dominant-baseline="alphabetic">Book Hotel</text></g><g stroke-linecap="round" transform="translate(62.16900985894824 1053.8503058911263) rotate(0 84.60907177859605 22.74854443693448)"><path d="M0 0 C40.6 2.07, 80.8 -1.35, 169.22 0 M0 0 C61.22 -0.96, 123.43 -1.99, 169.22 0 M169.22 0 C169.62 17.23, 168.41 30.91, 169.22 45.5 M169.22 0 C168.44 12.17, 169.29 23.47, 169.22 45.5 M169.22 45.5 C115.36 44.61, 58.94 45.99, 0 45.5 M169.22 45.5 C127.18 45.92, 83.59 47.39, 0 45.5 M0 45.5 C0.32 29.12, -2.07 12.6, 0 0 M0 45.5 C-0.41 26.58, 0.67 9.55, 0 0" stroke="#1e1e1e" stroke-width="2" fill="none"></path></g><g transform="translate(101.91141675106974 1064.0988503280607) rotate(0 44.86666488647461 12.5)"><text x="44.86666488647461" y="17.52" font-family="Virgil, Segoe UI Emoji" font-size="20px" fill="#1e1e1e" text-anchor="middle" style="white-space: pre;" direction="ltr" dominant-baseline="alphabetic">Hotel DB</text></g><g mask="url(#mask-T2_vUIbSzrKnqTaQKmZRN)" stroke-linecap="round"><g transform="translate(45.536419791114554 457.41451228598345) rotate(0 22.624486796511235 296.2977259102869)"><path d="M0.28 0.97 C2.21 77.52, 2.85 361.09, 10.44 459.71 C18.02 558.34, 39.89 570.73, 45.78 592.72 M-1.04 0.44 C0.92 76.63, 2.21 359.2, 9.94 458.14 C17.66 557.08, 39.23 571.75, 45.29 594.1" stroke="#1e1e1e" stroke-width="2" fill="none"></path></g><g transform="translate(45.536419791114554 457.41451228598345) rotate(0 22.624486796511235 296.2977259102869)"><path d="M28.14 575.91 C33.31 580.97, 36.9 584.12, 45.29 594.1 M28.14 575.91 C33.19 582.42, 39.5 588, 45.29 594.1" stroke="#1e1e1e" stroke-width="2" fill="none"></path></g><g transform="translate(45.536419791114554 457.41451228598345) rotate(0 22.624486796511235 296.2977259102869)"><path d="M43.84 569.14 C45.85 575.61, 46.27 580.13, 45.29 594.1 M43.84 569.14 C44.05 577.62, 45.5 585.3, 45.29 594.1" stroke="#1e1e1e" stroke-width="2" fill="none"></path></g></g><mask id="mask-T2_vUIbSzrKnqTaQKmZRN"><rect x="0" y="0" fill="#fff" width="190.78539338413702" height="1150.0099641065572"></rect><rect x="28.082634337415698" y="891.0836690177603" fill="#000" width="54.08333206176758" height="50" opacity="1"></rect></mask><g transform="translate(28.082634337415698 891.0836690177603) rotate(0 39.825599020653556 -136.4002509497446)"><text x="27.04166603088379" y="17.52" font-family="Virgil, Segoe UI Emoji" font-size="20px" fill="#1e1e1e" text-anchor="middle" style="white-space: pre;" direction="ltr" dominant-baseline="alphabetic">Store</text><text x="27.04166603088379" y="42.519999999999996" font-family="Virgil, Segoe UI Emoji" font-size="20px" fill="#1e1e1e" text-anchor="middle" style="white-space: pre;" direction="ltr" dominant-baseline="alphabetic">Data</text></g><g stroke-linecap="round" transform="translate(308.74417352804153 644.423253953888) rotate(0 84.6090717785961 49.17711586550587)"><path d="M0 0 C54.44 -2.79, 110.62 -1.1, 169.22 0 M0 0 C49.34 1, 100.9 0, 169.22 0 M169.22 0 C167.92 33.46, 169.49 65.49, 169.22 98.35 M169.22 0 C169.52 18.84, 170.96 39.35, 169.22 98.35 M169.22 98.35 C121.48 99.43, 73.38 100.68, 0 98.35 M169.22 98.35 C110.27 97.94, 53.99 96.64, 0 98.35 M0 98.35 C1.3 68.19, -0.92 34.39, 0 0 M0 98.35 C1.03 62.35, 0.99 25.99, 0 0" stroke="#1e1e1e" stroke-width="2" fill="none"></path></g><g transform="translate(347.1865773684051 681.1003698193938) rotate(0 46.16666793823242 12.5)"><text x="46.16666793823242" y="17.52" font-family="Virgil, Segoe UI Emoji" font-size="20px" fill="#1e1e1e" text-anchor="middle" style="white-space: pre;" direction="ltr" dominant-baseline="alphabetic">RabbitMQ</text></g><g mask="url(#mask-VgNywNkkxYP64vN16dBXQ)" stroke-linecap="round"><g transform="translate(134.99870542896315 457.908195956655) rotate(0 84.5794112569273 104.86043497370304)"><path d="M0.52 0.89 C11.86 8.05, 41.01 8.07, 69.08 43.05 C97.15 78.02, 152.06 182.8, 168.92 210.75" stroke="#1e1e1e" stroke-width="2.5" fill="none" stroke-dasharray="1.5 8"></path></g><g transform="translate(134.99870542896315 457.908195956655) rotate(0 84.5794112569273 104.86043497370304)"><path d="M149.92 194.5 C158.75 201.92, 163.9 206.54, 168.92 210.75" stroke="#1e1e1e" stroke-width="2.5" fill="none" stroke-dasharray="1.5 6"></path></g><g transform="translate(134.99870542896315 457.908195956655) rotate(0 84.5794112569273 104.86043497370304)"><path d="M164.81 186.09 C167.91 196.82, 167.32 204.68, 168.92 210.75" stroke="#1e1e1e" stroke-width="2.5" fill="none" stroke-dasharray="1.5 6"></path></g></g><mask id="mask-VgNywNkkxYP64vN16dBXQ"><rect x="0" y="0" fill="#fff" width="404.15752794281775" height="767.629065904061"></rect><rect x="138.650365323982" y="476.36182609377056" fill="#000" width="129.36666870117188" height="50" opacity="1"></rect></mask><g transform="translate(138.650365323982 476.3618260937707) rotate(0 81.06482251878276 87.3686183158768)"><text x="64.68333435058594" y="17.52" font-family="Virgil, Segoe UI Emoji" font-size="20px" fill="#1e1e1e" text-anchor="middle" style="white-space: pre;" direction="ltr" dominant-baseline="alphabetic">Emit</text><text x="64.68333435058594" y="42.519999999999996" font-family="Virgil, Segoe UI Emoji" font-size="20px" fill="#1e1e1e" text-anchor="middle" style="white-space: pre;" direction="ltr" dominant-baseline="alphabetic">hotel_booked</text></g><g mask="url(#mask-Swdb93aZo1AtE3TOJgn1a)" stroke-linecap="round"><g transform="translate(105.99133975786049 457.34458563805384) rotate(0 98.00677911303274 120.91032401442669)"><path d="M1.09 -0.72 C10.08 18.87, 21.5 77.22, 54.11 117.66 C86.73 158.1, 173.01 221.25, 196.79 241.93" stroke="#1e1e1e" stroke-width="2.5" fill="none" stroke-dasharray="1.5 8"></path></g><g transform="translate(105.99133975786049 457.34458563805384) rotate(0 98.00677911303274 120.91032401442669)"><path d="M173.13 233.85 C179.38 237.68, 187.23 240.01, 196.79 241.93" stroke="#1e1e1e" stroke-width="2.5" fill="none" stroke-dasharray="1.5 6"></path></g><g transform="translate(105.99133975786049 457.34458563805384) rotate(0 98.00677911303274 120.91032401442669)"><path d="M183.86 220.53 C186.75 228.65, 191.22 235.18, 196.79 241.93" stroke="#1e1e1e" stroke-width="2.5" fill="none" stroke-dasharray="1.5 6"></path></g></g><mask id="mask-Swdb93aZo1AtE3TOJgn1a"><rect x="0" y="0" fill="#fff" width="402.00489798392596" height="799.1652336669072"></rect><rect x="83.45639202299185" y="550.487092167765" fill="#000" width="151.5" height="50" opacity="1"></rect></mask><g transform="translate(83.45639202299185 550.4870921677651) rotate(0 121.47497651779588 27.462632965797184)"><text x="75.75" y="17.52" font-family="Virgil, Segoe UI Emoji" font-size="20px" fill="#1e1e1e" text-anchor="middle" style="white-space: pre;" direction="ltr" dominant-baseline="alphabetic">Emit</text><text x="75.75" y="42.519999999999996" font-family="Virgil, Segoe UI Emoji" font-size="20px" fill="#1e1e1e" text-anchor="middle" style="white-space: pre;" direction="ltr" dominant-baseline="alphabetic">hotel_cancelled</text></g><g mask="url(#mask-CsSw9GDWcUvCulTXXtQ-5)" stroke-linecap="round"><g transform="translate(390.36710500227855 640.69169807705) rotate(0 -94.46538876952434 -105.1370962491003)"><path d="M0.48 -0.92 C-11.54 -33.24, -40.21 -158.45, -71.95 -193.28 C-103.7 -228.11, -170.62 -207.2, -190 -209.88" stroke="#1e1e1e" stroke-width="2.5" fill="none" stroke-dasharray="8 10"></path></g><g transform="translate(390.36710500227855 640.69169807705) rotate(0 -94.46538876952434 -105.1370962491003)"><path d="M-167.11 -219.93 C-175.84 -217.7, -182.6 -215.24, -190 -209.88" stroke="#1e1e1e" stroke-width="2.5" fill="none"></path></g><g transform="translate(390.36710500227855 640.69169807705) rotate(0 -94.46538876952434 -105.1370962491003)"><path d="M-166 -202.86 C-175.18 -206.04, -182.29 -209, -190 -209.88" stroke="#1e1e1e" stroke-width="2.5" fill="none"></path></g></g><mask id="mask-CsSw9GDWcUvCulTXXtQ-5"><rect x="0" y="0" fill="#fff" width="679.2978825413272" height="950.9658905752506"></rect><rect x="263.7832040293413" y="423.028633765938" fill="#000" width="110.51667022705078" height="50" opacity="1"></rect></mask><g transform="translate(263.7832040293413 423.0286337659378) rotate(0 31.82551099309586 110.36213353319533)"><text x="55.25833511352539" y="17.52" font-family="Virgil, Segoe UI Emoji" font-size="20px" fill="#1e1e1e" text-anchor="middle" style="white-space: pre;" direction="ltr" dominant-baseline="alphabetic">Notify user</text><text x="55.25833511352539" y="42.519999999999996" font-family="Virgil, Segoe UI Emoji" font-size="20px" fill="#1e1e1e" text-anchor="middle" style="white-space: pre;" direction="ltr" dominant-baseline="alphabetic">|events</text></g><g stroke-linecap="round" transform="translate(567.3526517860273 1050.6311337688226) rotate(0 84.6090717785961 22.74854443693448)"><path d="M0 0 C54.72 1.31, 110.25 -0.58, 169.22 0 M0 0 C36.28 0, 70.88 0.54, 169.22 0 M169.22 0 C169.86 12.14, 169.04 23.49, 169.22 45.5 M169.22 0 C169.35 17.48, 169.21 36.36, 169.22 45.5 M169.22 45.5 C115.43 43.97, 66.36 43.63, 0 45.5 M169.22 45.5 C113.48 45.04, 58.65 45.33, 0 45.5 M0 45.5 C0.14 29.96, 1.74 18.05, 0 0 M0 45.5 C-0.58 28.05, -1.24 10.25, 0 0" stroke="#1e1e1e" stroke-width="2" fill="none"></path></g><g transform="translate(609.5533907399163 1060.879678205757) rotate(0 42.40833282470703 12.5)"><text x="42.40833282470703" y="17.52" font-family="Virgil, Segoe UI Emoji" font-size="20px" fill="#1e1e1e" text-anchor="middle" style="white-space: pre;" direction="ltr" dominant-baseline="alphabetic">User DB</text></g><g stroke-linecap="round" transform="translate(609.7479956400803 415.02799711420954) rotate(0 84.6090717785961 22.74854443693448)"><path d="M0 0 C35.69 0.93, 70.03 -1.73, 169.22 0 M0 0 C38.35 -2.2, 75.21 -2.47, 169.22 0 M169.22 0 C169.26 14.04, 170.81 28.88, 169.22 45.5 M169.22 0 C169.46 9.08, 168.91 20.22, 169.22 45.5 M169.22 45.5 C121.11 47.98, 78.69 47.68, 0 45.5 M169.22 45.5 C103.79 46.51, 38.37 46.62, 0 45.5 M0 45.5 C0.37 28.17, -0.32 8.91, 0 0 M0 45.5 C0.88 30.05, 0.22 14.06, 0 0" stroke="#1e1e1e" stroke-width="2" fill="none"></path></g><g transform="translate(633.2570689445552 425.276541551144) rotate(0 61.099998474121094 12.5)"><text x="61.099998474121094" y="17.52" font-family="Virgil, Segoe UI Emoji" font-size="20px" fill="#1e1e1e" text-anchor="middle" style="white-space: pre;" direction="ltr" dominant-baseline="alphabetic">User Service</text></g><g mask="url(#mask-pgDxci_K50AK-peoBfr3k)" stroke-linecap="round"><g transform="translate(759.9674992675168 462.27670705614054) rotate(0 -28.7139447533325 291.20176902442125)"><path d="M-0.28 1.19 C-7.04 73.25, -30.57 334.7, -40.15 431.62 C-49.72 528.54, -54.93 557.41, -57.73 582.69 M1.78 0.76 C-5.17 73.06, -30.99 335.66, -41.06 432.89 C-51.13 530.12, -56.09 559.43, -58.65 584.16" stroke="#1e1e1e" stroke-width="2" fill="none"></path></g><g transform="translate(759.9674992675168 462.27670705614054) rotate(0 -28.7139447533325 291.20176902442125)"><path d="M-64.34 559.82 C-60.62 568.07, -61.53 575.59, -58.65 584.16 M-64.34 559.82 C-61.98 567.04, -60.66 574.75, -58.65 584.16" stroke="#1e1e1e" stroke-width="2" fill="none"></path></g><g transform="translate(759.9674992675168 462.27670705614054) rotate(0 -28.7139447533325 291.20176902442125)"><path d="M-47.36 561.86 C-49.3 569.39, -55.88 576.23, -58.65 584.16 M-47.36 561.86 C-50.51 568.55, -54.7 575.6, -58.65 584.16" stroke="#1e1e1e" stroke-width="2" fill="none"></path></g></g><mask id="mask-pgDxci_K50AK-peoBfr3k"><rect x="0" y="0" fill="#fff" width="917.3953887741818" height="1144.680245104983"></rect><rect x="692.7087906786392" y="869.3948796395395" fill="#000" width="54.08333206176758" height="50" opacity="1"></rect></mask><g transform="translate(692.7087906786392 869.3948796395393) rotate(0 38.82290479956919 -114.65392916762892)"><text x="27.04166603088379" y="17.52" font-family="Virgil, Segoe UI Emoji" font-size="20px" fill="#1e1e1e" text-anchor="middle" style="white-space: pre;" direction="ltr" dominant-baseline="alphabetic">Store</text><text x="27.04166603088379" y="42.519999999999996" font-family="Virgil, Segoe UI Emoji" font-size="20px" fill="#1e1e1e" text-anchor="middle" style="white-space: pre;" direction="ltr" dominant-baseline="alphabetic">Data</text></g><g mask="url(#mask-WNStqe4QJsckCzIoXTbcI)" stroke-linecap="round"><g transform="translate(741.9871621189534 461.5250859880784) rotate(0 -128.61516760678705 130.84892970659558)"><path d="M-1.05 0.99 C-15.96 39.33, -46.78 186.66, -89.35 229.94 C-131.93 273.23, -228.54 255.55, -256.52 260.68" stroke="#1e1e1e" stroke-width="2.5" fill="none" stroke-dasharray="1.5 8"></path></g><g transform="translate(741.9871621189534 461.5250859880784) rotate(0 -128.61516760678705 130.84892970659558)"><path d="M-233.18 251.71 C-238.74 253.84, -245.73 258.23, -256.52 260.68" stroke="#1e1e1e" stroke-width="2.5" fill="none" stroke-dasharray="1.5 6"></path></g><g transform="translate(741.9871621189534 461.5250859880784) rotate(0 -128.61516760678705 130.84892970659558)"><path d="M-232.88 268.81 C-238.51 265.66, -245.6 264.77, -256.52 260.68" stroke="#1e1e1e" stroke-width="2.5" fill="none" stroke-dasharray="1.5 6"></path></g></g><mask id="mask-WNStqe4QJsckCzIoXTbcI"><rect x="0" y="0" fill="#fff" width="1099.2174973325275" height="823.2229454012695"></rect><rect x="585.4914447776684" y="665.3498376714045" fill="#000" width="134.8000030517578" height="50" opacity="1"></rect></mask><g transform="translate(585.4914447776687 665.3498376714045) rotate(0 27.70976369310381 -72.98882610052272)"><text x="67.4000015258789" y="17.52" font-family="Virgil, Segoe UI Emoji" font-size="20px" fill="#1e1e1e" text-anchor="middle" style="white-space: pre;" direction="ltr" dominant-baseline="alphabetic">Emit</text><text x="67.4000015258789" y="42.519999999999996" font-family="Virgil, Segoe UI Emoji" font-size="20px" fill="#1e1e1e" text-anchor="middle" style="white-space: pre;" direction="ltr" dominant-baseline="alphabetic">user_created</text></g><g mask="url(#mask-qEGk4DVcaGuZPm1sgAA8d)" stroke-linecap="round"><g transform="translate(717.444982811852 470.9864654993076) rotate(0 -117.11632004243256 107.7891846476499)"><path d="M0.56 -1.16 C-18.7 24.55, -77.54 117.4, -116.53 153.45 C-155.52 189.5, -213.74 204.75, -233.39 215.13" stroke="#1e1e1e" stroke-width="2.5" fill="none" stroke-dasharray="1.5 8"></path></g><g transform="translate(717.444982811852 470.9864654993076) rotate(0 -117.11632004243256 107.7891846476499)"><path d="M-215.01 198.18 C-221.09 200.8, -223.88 207.1, -233.39 215.13" stroke="#1e1e1e" stroke-width="2.5" fill="none" stroke-dasharray="1.5 6"></path></g><g transform="translate(717.444982811852 470.9864654993076) rotate(0 -117.11632004243256 107.7891846476499)"><path d="M-208.42 213.96 C-215.84 213.15, -220.07 215.99, -233.39 215.13" stroke="#1e1e1e" stroke-width="2.5" fill="none" stroke-dasharray="1.5 6"></path></g></g><mask id="mask-qEGk4DVcaGuZPm1sgAA8d"><rect x="0" y="0" fill="#fff" width="1051.6776228967171" height="786.5648347946073"></rect><rect x="532.7003616125196" y="599.8566786426293" fill="#000" width="137.85000610351562" height="50" opacity="1"></rect></mask><g transform="translate(532.7003616125196 599.8566786426294) rotate(0 68.32828233412556 -21.88962263347446)"><text x="68.92500305175781" y="17.52" font-family="Virgil, Segoe UI Emoji" font-size="20px" fill="#1e1e1e" text-anchor="middle" style="white-space: pre;" direction="ltr" dominant-baseline="alphabetic">Emit</text><text x="68.92500305175781" y="42.519999999999996" font-family="Virgil, Segoe UI Emoji" font-size="20px" fill="#1e1e1e" text-anchor="middle" style="white-space: pre;" direction="ltr" dominant-baseline="alphabetic">user_updated</text></g><g mask="url(#mask-B-BUyuu4us3qQBNVyzUrJ)" stroke-linecap="round"><g transform="translate(642.5198164331512 468.7824052407652) rotate(0 -77.96027732295852 92.24521257941103)"><path d="M-0.8 0.35 C-11.14 11.62, -36.83 38.16, -62.8 68.77 C-88.78 99.38, -141.3 164.73, -156.67 184.01" stroke="#1e1e1e" stroke-width="2.5" fill="none" stroke-dasharray="1.5 8"></path></g><g transform="translate(642.5198164331512 468.7824052407652) rotate(0 -77.96027732295852 92.24521257941103)"><path d="M-148.64 160.33 C-149.71 165.19, -152.91 170.1, -156.67 184.01" stroke="#1e1e1e" stroke-width="2.5" fill="none" stroke-dasharray="1.5 6"></path></g><g transform="translate(642.5198164331512 468.7824052407652) rotate(0 -77.96027732295852 92.24521257941103)"><path d="M-135.3 171.03 C-139.59 173.29, -145.91 175.71, -156.67 184.01" stroke="#1e1e1e" stroke-width="2.5" fill="none" stroke-dasharray="1.5 6"></path></g></g><mask id="mask-B-BUyuu4us3qQBNVyzUrJ"><rect x="0" y="0" fill="#fff" width="898.4403710790682" height="753.2728303995873"></rect><rect x="514.8846044661486" y="512.9976682366538" fill="#000" width="130.4166717529297" height="50" opacity="1"></rect></mask><g transform="translate(514.8846044661486 512.9976682366538) rotate(0 48.89764672012677 47.96457417759984)"><text x="65.20833587646484" y="17.52" font-family="Virgil, Segoe UI Emoji" font-size="20px" fill="#1e1e1e" text-anchor="middle" style="white-space: pre;" direction="ltr" dominant-baseline="alphabetic">Emit</text><text x="65.20833587646484" y="42.519999999999996" font-family="Virgil, Segoe UI Emoji" font-size="20px" fill="#1e1e1e" text-anchor="middle" style="white-space: pre;" direction="ltr" dominant-baseline="alphabetic">user_deleted</text></g><g mask="url(#mask-lMtfutUBIbhjzDqA2M6eQ)" stroke-linecap="round"><g transform="translate(401.16116437036453 642.4119460665074) rotate(0 100.56174859763962 -106.07087029837794)"><path d="M-0.96 -0.3 C9.88 -30.13, 32.56 -144.7, 66.06 -179.88 C99.56 -215.06, 177.48 -206.17, 200.03 -211.38" stroke="#1e1e1e" stroke-width="2.5" fill="none" stroke-dasharray="8 10"></path></g><g transform="translate(401.16116437036453 642.4119460665074) rotate(0 100.56174859763962 -106.07087029837794)"><path d="M177.25 -201.09 C185.6 -204.2, 193.45 -210.66, 200.03 -211.38" stroke="#1e1e1e" stroke-width="2.5" fill="none"></path></g><g transform="translate(401.16116437036453 642.4119460665074) rotate(0 100.56174859763962 -106.07087029837794)"><path d="M175.96 -218.14 C184.68 -214.67, 193.03 -214.56, 200.03 -211.38" stroke="#1e1e1e" stroke-width="2.5" fill="none"></path></g></g><mask id="mask-lMtfutUBIbhjzDqA2M6eQ"><rect x="0" y="0" fill="#fff" width="702.2846615656438" height="954.5536866632633"></rect><rect x="408.2047561588738" y="438.3910575275004" fill="#000" width="117.21666717529297" height="50" opacity="1"></rect></mask><g transform="translate(408.2047561588738 438.39105752750027) rotate(0 92.49344693436626 98.17965350349107)"><text x="58.608333587646484" y="17.52" font-family="Virgil, Segoe UI Emoji" font-size="20px" fill="#1e1e1e" text-anchor="middle" style="white-space: pre;" direction="ltr" dominant-baseline="alphabetic">Notify hotel</text><text x="58.608333587646484" y="42.519999999999996" font-family="Virgil, Segoe UI Emoji" font-size="20px" fill="#1e1e1e" text-anchor="middle" style="white-space: pre;" direction="ltr" dominant-baseline="alphabetic">events</text></g><g stroke-linecap="round" transform="translate(325.82635219710755 65.95363669797058) rotate(0 84.6090717785961 22.748544436934452)"><path d="M0 0 C43.19 -0.09, 88.17 -0.16, 169.22 0 M0 0 C58.07 -1.21, 116.43 0.4, 169.22 0 M169.22 0 C170.26 17.88, 171.65 36.06, 169.22 45.5 M169.22 0 C169.39 17.82, 170.01 35.51, 169.22 45.5 M169.22 45.5 C111.37 45.71, 51.05 44.98, 0 45.5 M169.22 45.5 C107.54 43.43, 44.93 43.55, 0 45.5 M0 45.5 C-1.04 26.93, -0.04 11.04, 0 0 M0 45.5 C-1.08 31.65, -0.74 15.98, 0 0" stroke="#1e1e1e" stroke-width="2" fill="none"></path></g><g transform="translate(343.69375527453167 76.20218113490506) rotate(0 66.74166870117188 12.5)"><text x="66.74166870117188" y="17.52" font-family="Virgil, Segoe UI Emoji" font-size="20px" fill="#1e1e1e" text-anchor="middle" style="white-space: pre;" direction="ltr" dominant-baseline="alphabetic">API Gateway</text></g><g mask="url(#mask-zqhK6Ze3jaZpy0upJ6JPe)" stroke-linecap="round"><g transform="translate(433.18735289715687 117.72750066058455) rotate(0 91.96034700712062 142.8816633024225)"><path d="M0.5 1.19 C8.49 21.25, 16.63 72.79, 47.24 120.06 C77.85 167.34, 161.45 257.34, 184.15 284.81 M-0.7 0.76 C7.2 20.98, 15.59 73.65, 46.29 121.12 C76.99 168.6, 160.65 258.23, 183.5 285.63" stroke="#1e1e1e" stroke-width="2" fill="none"></path></g><g transform="translate(433.18735289715687 117.72750066058455) rotate(0 91.96034700712062 142.8816633024225)"><path d="M161.58 273.62 C168.75 276.38, 170.47 279.63, 183.5 285.63 M161.58 273.62 C166.58 276.56, 170.42 279.54, 183.5 285.63" stroke="#1e1e1e" stroke-width="2" fill="none"></path></g><g transform="translate(433.18735289715687 117.72750066058455) rotate(0 91.96034700712062 142.8816633024225)"><path d="M174.44 262.34 C178.51 267.84, 177.18 273.77, 183.5 285.63 M174.44 262.34 C176.55 267.68, 177.55 273.16, 183.5 285.63" stroke="#1e1e1e" stroke-width="2" fill="none"></path></g></g><mask id="mask-zqhK6Ze3jaZpy0upJ6JPe"><rect x="0" y="0" fill="#fff" width="717.1080469113981" height="503.4908272654296"></rect><rect x="420.61042321276454" y="226.20218113490512" fill="#000" width="119.6500015258789" height="25" opacity="1"></rect></mask><g transform="translate(420.6104232127643 226.202181134905) rotate(0 104.29989808294727 34.72390352836146)"><text x="59.82500076293945" y="17.52" font-family="Virgil, Segoe UI Emoji" font-size="20px" fill="#1e1e1e" text-anchor="middle" style="white-space: pre;" direction="ltr" dominant-baseline="alphabetic">Delete User</text></g><g mask="url(#mask-8mszIIZffFI2sxo8n5ZE3)" stroke-linecap="round"><g transform="translate(473.40760204561525 119.25121589720072) rotate(0 91.73216593508835 143.38991676255623)"><path d="M0.02 -0.72 C14.29 13.16, 54.18 35.77, 84.71 83.49 C115.24 131.21, 166.56 251.8, 183.21 285.6 M-1.43 1.51 C13.27 15.05, 56.22 34.37, 86.84 81.84 C117.47 129.3, 166.48 252.08, 182.31 286.3" stroke="#1e1e1e" stroke-width="2" fill="none"></path></g><g transform="translate(473.40760204561525 119.25121589720072) rotate(0 91.73216593508835 143.38991676255623)"><path d="M165.11 268.15 C167.79 270.37, 174.33 275.84, 182.31 286.3 M165.11 268.15 C168.27 272.14, 172.47 275.61, 182.31 286.3" stroke="#1e1e1e" stroke-width="2" fill="none"></path></g><g transform="translate(473.40760204561525 119.25121589720072) rotate(0 91.73216593508835 143.38991676255623)"><path d="M180.8 261.34 C179.98 265.09, 183.01 272.08, 182.31 286.3 M180.8 261.34 C180.86 266.64, 181.9 271.48, 182.31 286.3" stroke="#1e1e1e" stroke-width="2" fill="none"></path></g></g><mask id="mask-8mszIIZffFI2sxo8n5ZE3"><rect x="0" y="0" fill="#fff" width="756.8719339157919" height="506.0310494223132"></rect><rect x="496.32528096747274" y="189.34454858673388" fill="#000" width="125.78333282470703" height="25" opacity="1"></rect></mask><g transform="translate(496.3252809674725 189.34454858673382) rotate(0 67.97009094253258 72.69515811982302)"><text x="62.891666412353516" y="17.52" font-family="Virgil, Segoe UI Emoji" font-size="20px" fill="#1e1e1e" text-anchor="middle" style="white-space: pre;" direction="ltr" dominant-baseline="alphabetic">Update User</text></g><g mask="url(#mask-ejnhO-1t87bdWsf27Fznj)" stroke-linecap="round"><g transform="translate(502.18309155624866 102.10899792888586) rotate(0 122.29669882692008 151.71948783652184)"><path d="M0.55 0.67 C30.46 23.42, 139.73 86.68, 180.24 137.33 C220.74 187.98, 232.99 276.99, 243.58 304.55 M-0.62 -0.03 C29.17 22.76, 138.81 87.78, 179.9 138.25 C221 188.72, 235.33 275.26, 245.94 302.79" stroke="#1e1e1e" stroke-width="2" fill="none"></path></g><g transform="translate(502.18309155624866 102.10899792888586) rotate(0 122.29669882692008 151.71948783652184)"><path d="M231.13 282.65 C237.77 291.86, 240.08 295.56, 245.94 302.79 M231.13 282.65 C237.49 291.22, 242.84 298.13, 245.94 302.79" stroke="#1e1e1e" stroke-width="2" fill="none"></path></g><g transform="translate(502.18309155624866 102.10899792888586) rotate(0 122.29669882692008 151.71948783652184)"><path d="M247.54 277.84 C248.23 288.88, 244.57 294.33, 245.94 302.79 M247.54 277.84 C247.43 288.19, 246.34 296.99, 245.94 302.79" stroke="#1e1e1e" stroke-width="2" fill="none"></path></g></g><mask id="mask-ejnhO-1t87bdWsf27Fznj"><rect x="0" y="0" fill="#fff" width="846.7764892100888" height="505.5479736019295"></rect><rect x="619.9177773295667" y="228.12003809736717" fill="#000" width="122.66666412353516" height="25" opacity="1"></rect></mask><g transform="translate(619.9177773295664 228.12003809736717) rotate(0 4.928642883809744 26.24735506201199)"><text x="61.33333206176758" y="17.52" font-family="Virgil, Segoe UI Emoji" font-size="20px" fill="#1e1e1e" text-anchor="middle" style="white-space: pre;" direction="ltr" dominant-baseline="alphabetic">Create User</text></g></svg>