<svg width="187" height="27" viewBox="0 0 187 27" fill="none" xmlns="http://www.w3.org/2000/svg">
<path d="M26.6154 10.728L24.1914 12.288C23.9514 12.912 23.8314 14.216 23.8314 16.2C23.8314 18.2 24.5274 19.2 25.9194 19.2C27.2954 19.2 27.9834 19.496 27.9834 20.088C27.9834 20.696 26.5754 21 23.7594 21C20.9434 21 19.5354 20.696 19.5354 20.088C19.5354 19.496 19.9354 19.2 20.7354 19.2C21.5194 19.2 21.9114 17.496 21.9114 14.088C21.9114 10.696 22.2314 9 22.8714 9C23.5114 9 23.8314 9.52 23.8314 10.56C23.8314 11.072 23.8634 11.36 23.9274 11.424C24.0074 11.472 24.1114 11.288 24.2394 10.872L26.7114 8.76C28.3434 8.76 29.1594 9.088 29.1594 9.744C29.1594 10.4 28.3114 10.728 26.6154 10.728ZM42.9308 18.696L40.1228 21.24H36.4748L33.9308 19.728L32.4428 16.896V13.152L33.9308 10.296L36.4748 8.76H40.0988L42.9068 11.304C43.0988 12.76 42.9068 13.488 42.3308 13.488C41.7388 13.488 41.2988 13.016 41.0108 12.072L39.3548 10.608H37.0268L35.3468 11.664L34.3628 13.656V16.392L35.3468 18.36L37.0268 19.392H39.3788L41.0348 17.928C41.3228 16.968 41.7548 16.488 42.3308 16.488C42.9068 16.488 43.1068 17.224 42.9308 18.696ZM56.8221 8.76V17.016C56.8221 19.672 56.5021 21 55.8621 21C55.2221 21 54.9021 19.632 54.9021 16.896V11.688L54.3981 10.68H52.6701C52.2221 12.232 51.9981 14.344 51.9981 17.016C51.9981 19.672 51.6941 21 51.0861 21C50.4781 21 50.1741 19.632 50.1741 16.896V11.664L49.7421 10.68H48.3261L47.3661 12.648C47.2861 13.048 47.2221 13.648 47.1741 14.448C47.1421 15.248 47.1261 16.24 47.1261 17.424C47.1261 19.808 46.8061 21 46.1661 21C45.5261 21 45.2061 19 45.2061 15C45.2061 11 45.5261 9 46.1661 9C46.8061 9 47.1261 9.568 47.1261 10.704C47.1261 11.808 47.2301 11.912 47.4381 11.016L48.7341 8.76H51.1821C51.5181 9.8 51.7581 10.472 51.9021 10.776C52.0621 11.08 52.1981 11.024 52.3101 10.608L53.5581 8.76H56.8221ZM62.6494 21.24L60.2014 19.728L58.8334 16.92V13.128L60.2014 10.296L62.6494 8.76H65.7934L68.2174 10.296L69.5854 13.128V16.92L68.2414 19.728L65.8174 21.24H62.6494ZM65.7934 19.392L67.6654 17.088V12.96L65.7934 10.608H62.6734L60.7534 12.96V17.088L62.6494 19.392H65.7934ZM79.4927 8.76L81.2687 9.552L82.4927 11.472V17.016C82.4927 19.672 82.1727 21 81.5327 21C80.8927 21 80.5727 19.752 80.5727 17.256V10.68H76.2767L74.5727 12.744C74.3487 13.608 74.2367 15.192 74.2367 17.496C74.2367 19.832 73.9167 21 73.2767 21C72.6367 21 72.3167 19 72.3167 15C72.3167 11 72.6367 9 73.2767 9C73.9167 9 74.2367 9.592 74.2367 10.776C74.2367 11.976 74.3807 12.112 74.6687 11.184L76.8287 8.76H79.4927ZM92.976 10.8C91.392 10.8 90.6 11.816 90.6 13.848V18.192L91.752 19.224C92.088 19.208 92.448 19.2 92.832 19.2C93.216 19.2 93.624 19.2 94.056 19.2C94.904 19.2 95.328 19.496 95.328 20.088C95.328 20.696 94.904 21 94.056 21H90.864L88.68 18.984V13.848C88.68 11.816 88.176 10.8 87.168 10.8C86.144 10.8 85.632 10.496 85.632 9.888C85.632 9.296 86.144 9 87.168 9C88.176 9 88.68 8.48 88.68 7.44C88.68 6.4 89 5.88 89.64 5.88C90.28 5.88 90.6 6.4 90.6 7.44C90.6 8.48 91.392 9 92.976 9C94.544 9 95.328 9.296 95.328 9.888C95.328 10.496 94.544 10.8 92.976 10.8ZM108.187 17.136C108.795 17.136 108.995 17.744 108.787 18.96L106.267 21.24H102.499L99.8833 19.656L98.4193 16.824V13.224L99.8353 10.368L102.403 8.76H106.675L109.291 12.24C109.195 14.416 107.683 15.504 104.755 15.504C101.811 15.504 100.395 16.088 100.507 17.256L102.571 19.392H106.579C107.027 17.888 107.563 17.136 108.187 17.136ZM102.571 10.608L100.819 12.288C100.579 13.28 101.579 13.776 103.819 13.776C106.059 13.776 107.147 13.264 107.083 12.24L105.427 10.608H102.571ZM118.479 5.352C118.479 6.136 118.063 6.528 117.231 6.528C116.399 6.528 115.983 6.136 115.983 5.352C115.983 4.584 116.399 4.2 117.231 4.2C118.063 4.2 118.479 4.584 118.479 5.352ZM119.871 19.2C120.991 19.2 121.551 19.496 121.551 20.088C121.551 20.696 120.031 21 116.991 21C113.951 21 112.431 20.696 112.431 20.088C112.431 19.496 113.071 19.2 114.351 19.2C115.631 19.2 116.271 17.8 116.271 15C116.271 12.2 115.631 10.8 114.351 10.8C113.071 10.8 112.431 10.496 112.431 9.888C112.431 9.296 113.391 9 115.311 9C117.231 9 118.191 10.696 118.191 14.088C118.191 17.496 118.751 19.2 119.871 19.2ZM132.178 10.728L129.754 12.288C129.514 12.912 129.394 14.216 129.394 16.2C129.394 18.2 130.09 19.2 131.482 19.2C132.858 19.2 133.546 19.496 133.546 20.088C133.546 20.696 132.138 21 129.322 21C126.506 21 125.098 20.696 125.098 20.088C125.098 19.496 125.498 19.2 126.298 19.2C127.082 19.2 127.474 17.496 127.474 14.088C127.474 10.696 127.794 9 128.434 9C129.074 9 129.394 9.52 129.394 10.56C129.394 11.072 129.426 11.36 129.49 11.424C129.57 11.472 129.674 11.288 129.802 10.872L132.274 8.76C133.906 8.76 134.722 9.088 134.722 9.744C134.722 10.4 133.874 10.728 132.178 10.728ZM141.821 21.24L139.373 19.728L138.005 16.92V13.128L139.373 10.296L141.821 8.76H144.965L147.389 10.296L148.757 13.128V16.92L147.413 19.728L144.989 21.24H141.821ZM144.965 19.392L146.837 17.088V12.96L144.965 10.608H141.845L139.925 12.96V17.088L141.821 19.392H144.965Z" fill="#97EB34"/>
<path d="M8.36313 10.272C10.0911 9.26933 11.4351 8.64 12.3951 8.384C13.3765 8.10667 13.9631 8.10667 14.1551 8.384C14.3471 8.66133 14.1231 9.13067 13.4831 9.792C12.8431 10.432 11.7658 11.1893 10.2511 12.064C7.24313 13.8133 7.24313 15.552 10.2511 17.28C13.2591 19.0293 14.5605 20.2667 14.1551 20.992C14.0058 21.2267 13.6325 21.2907 13.0351 21.184C12.4591 21.056 11.7551 20.8107 10.9231 20.448C10.1125 20.0853 9.25913 19.648 8.36313 19.136C7.46713 18.6027 6.62446 18.0587 5.83513 17.504C5.06713 16.9493 4.43779 16.4267 3.94713 15.936C3.45646 15.424 3.21113 15.008 3.21113 14.688C3.21113 13.728 4.92846 12.256 8.36313 10.272Z" fill="#869AB8"/>
<path d="M166.926 2.272C167.097 2.37867 167.054 2.79467 166.798 3.52C166.564 4.24533 166.169 5.184 165.614 6.336C165.06 7.488 164.398 8.768 163.63 10.176C162.884 11.584 162.084 13.024 161.23 14.496C160.398 15.968 159.556 17.3867 158.702 18.752C157.87 20.096 157.092 21.3013 156.366 22.368C155.641 23.4133 155.022 24.224 154.51 24.8C154.02 25.376 153.689 25.6107 153.518 25.504C153.348 25.3973 153.38 24.9813 153.614 24.256C153.87 23.5307 154.265 22.592 154.798 21.44C155.353 20.288 156.004 19.008 156.75 17.6C157.518 16.192 158.318 14.7627 159.15 13.312C160.004 11.84 160.846 10.432 161.678 9.088C162.532 7.72267 163.321 6.51733 164.046 5.472C164.772 4.40533 165.39 3.584 165.902 3.008C166.414 2.41067 166.756 2.16533 166.926 2.272ZM178.44 10.272C181.875 12.256 183.592 13.728 183.592 14.688C183.592 15.008 183.347 15.424 182.856 15.936C182.365 16.4267 181.725 16.9493 180.936 17.504C180.168 18.0587 179.336 18.6027 178.44 19.136C177.544 19.648 176.68 20.0853 175.848 20.448C175.037 20.8107 174.333 21.056 173.736 21.184C173.16 21.2907 172.797 21.2267 172.648 20.992C172.243 20.2667 173.544 19.0293 176.552 17.28C179.56 15.552 179.56 13.8133 176.552 12.064C175.037 11.1893 173.96 10.432 173.32 9.792C172.68 9.13067 172.456 8.66133 172.648 8.384C172.84 8.10667 173.416 8.10667 174.376 8.384C175.357 8.64 176.712 9.26933 178.44 10.272Z" fill="#869AB8"/>
</svg>
